<?xml version="1.0" encoding="utf-8"?>
<!-- Generator: Adobe Illustrator 16.0.3, SVG Export Plug-In . SVG Version: 6.00 Build 0)  -->
<!DOCTYPE svg PUBLIC "-//W3C//DTD SVG 1.1//EN" "http://www.w3.org/Graphics/SVG/1.1/DTD/svg11.dtd">
<svg version="1.1" id="Layer_1" xmlns="http://www.w3.org/2000/svg" xmlns:xlink="http://www.w3.org/1999/xlink" x="0px" y="0px"
	 width="476.88px" height="360.48px" viewBox="0 0 476.88 360.48" enable-background="new 0 0 476.88 360.48" xml:space="preserve">
<g>
	<g>
		<path fill="none" d="M0.24,360.48c0-120.08,0-240.16,0-360.24c158.88,0,317.76,0,476.64,0c0,120.08,0,240.159,0,360.239
			C318,360.48,159.12,360.48,0.24,360.48z M431.777,85.054c-0.168-0.098-0.336-0.195-0.504-0.292
			c-0.409,0.545-0.762,1.145-1.236,1.625c-1.435,1.449-2.887,2.884-4.385,4.267c-5.888,5.434-13.319,7.906-20.594,10.673
			c-0.798,0.304-1.414-0.016-1.847-0.691c-0.667-1.042-1.33-2.088-1.948-3.16c-2.43-4.21-4.351-8.729-7.613-12.435
			c-0.388-0.441-0.586-1.045-0.934-1.529c-0.5-0.698-0.953-1.487-1.606-2.012c-6.114-4.915-13.01-8.373-20.479-10.683
			c-2.943-0.91-5.109-2.592-6.684-5.257c-1.234-2.089-2.638-4.117-4.218-5.955c-5.37-6.245-11.723-11.283-19.075-15.039
			c-1.812-0.926-3.553-2-5.394-2.862c-2.523-1.181-5.04-2.455-7.688-3.275c-4.149-1.285-8.419-1.904-12.794-2.299
			c-3.722-0.336-7.502-1.732-10.91-3.376c-3.583-1.728-7.456-3.189-10.253-6.287c-0.18-0.198-0.465-0.307-0.711-0.438
			c-2.812-1.512-5.567-3.149-8.459-4.491c-2.409-1.118-4.913-2.351-7.49-2.719c-5.49-0.784-11.05-1.302-16.593-1.438
			c-5.463-0.134-10.939,0.354-16.411,0.541c-5.396,0.185-10.794,0.3-15.999,2.017c-2.336,0.771-4.896,1.107-7.013,2.265
			c-11.68,6.386-20.658,15.85-29.112,25.914c-3.182,3.787-6.474,7.536-10.107,10.875c-5.522,5.076-11.9,8.967-18.628,12.325
			c-14.459,7.217-29.012,14.244-42.973,22.437c-8.783,5.155-15.649,12.04-20.823,20.723c-1.466,2.461-3.193,4.681-5.59,6.33
			c-0.548,0.377-0.962,0.949-1.438,1.432c-1.312,1.334-2.527,2.786-3.956,3.982c-4.016,3.361-8.16,6.57-12.166,9.942
			c-1.235,1.04-2.373,2.294-3.24,3.652c-3.955,6.192-7.865,12.415-11.646,18.713c-1.427,2.377-2.496,4.973-3.66,7.5
			c-0.482,1.046-0.634,2.267-1.217,3.239c-0.567,0.945-1.476,1.692-2.27,2.493c-0.522,0.527-1.279,0.893-1.633,1.503
			c-2.984,5.143-6.083,10.232-8.777,15.526c-2.038,4.005-3.43,8.333-5.318,12.42c-0.821,1.777-1.969,3.497-3.313,4.917
			c-2.47,2.609-5.147,5.031-7.834,7.425c-1.427,1.271-1.926,2.724-1.45,4.498c0.65,2.424-0.099,4.347-1.998,5.84
			c-1.661,1.307-3.379,2.544-5.11,3.757c-2.048,1.435-2.231,3.183-0.344,4.825c0.928,0.808,1.999,1.454,3.022,2.148
			c1.999,1.354,4.035,1.22,6.129,0.188c0.969-0.477,1.278-1.129,0.938-2.131c-0.709-2.092-0.501-4.175,0.067-6.255
			c0.848-3.103,3.336-4.522,6.416-3.654c1.717,0.483,1.767,0.467,2.332-1.167c2.152-6.222,4.278-12.452,6.464-18.661
			c0.324-0.92,0.749-1.92,1.425-2.577c1.534-1.493,2.51-3.256,3.363-5.183c2.485-5.616,5.044-11.2,7.649-16.762
			c0.372-0.794,1.074-1.496,1.769-2.062c1.237-1.008,2.882-0.358,3.091,1.201c0.521,3.881,1.039,7.764,1.443,11.657
			c0.229,2.206,0.961,4.058,2.606,5.608c0.853,0.805,1.62,1.804,2.124,2.858c3.073,6.421,5.606,13.047,7.34,19.966
			c1.768,7.051,2.609,14.181,1.283,21.383c-0.873,4.741-2.075,9.426-3.226,14.111c-1.391,5.66-1.528,11.252,0.031,16.938
			c0.883,3.221,1.477,6.57,1.751,9.898c0.716,8.687,1.175,17.393,1.753,26.09c0.456,6.843,1.519,13.566,3.755,20.085
			c1.142,3.327,3.064,5.996,5.856,8.128c5.207,3.976,10.951,6.841,17.241,8.637c3.087,0.882,6.112,0.717,8.972-0.749
			c0.655-0.335,1.442-1.14,1.499-1.786c0.25-2.86,0.482-5.757,0.296-8.612c-0.262-4.021-0.955-8.013-1.357-12.028
			c-0.243-2.423-1.162-4.488-2.492-6.507c-1.507-2.287-2.942-4.669-4.03-7.175c-2.136-4.92-2.21-10.228-2.033-15.454
			c0.251-7.389,0.872-14.764,1.32-22.146c0.094-1.553,0.304-3.127,0.147-4.659c-0.24-2.339-0.748-4.65-1.158-6.972
			c-0.04-0.226-0.134-0.501-0.298-0.636c-1.092-0.897-0.994-1.987-0.367-3.013c1.01-1.654,2.013-3.348,3.272-4.806
			c1.03-1.191,2.406-2.095,3.671-3.069c1.938-1.493,2.791-1.358,4.253,0.616c2.925,3.952,5.79,7.949,8.782,11.849
			c1.133,1.477,2.401,2.928,3.866,4.054c3.398,2.615,4.104,5.541,1.754,9.121c-1.489,2.268-3.141,4.433-4.771,6.605
			c-0.642,0.854-0.941,1.713-0.738,2.782c0.299,1.569,0.565,3.147,0.775,4.73c0.832,6.272,0.211,12.54-0.128,18.805
			c-0.339,6.231-0.776,12.458,0.126,18.68c0.277,1.912,0.826,3.729,2.52,4.846c2.43,1.604,4.866,3.228,7.434,4.587
			c4.936,2.612,10.16,3.139,15.583,1.696c1.087-0.289,1.577-0.879,1.471-1.955c-0.149-1.509-0.218-3.041-0.542-4.516
			c-0.986-4.476-3.053-8.468-5.779-12.121c-2.473-3.312-3.197-6.961-2.426-10.996c0.275-1.439,0.466-2.94,0.382-4.396
			c-0.178-3.094,0.888-5.602,3.27-7.479c4.713-3.712,8.711-8.129,12.565-12.671c1.612-1.899,2.907-4.086,4.211-6.224
			c0.975-1.6,2.224-2.757,4.117-2.57c2.041,0.202,4.121,0.54,6.047,1.212c2.062,0.72,3.643,0.489,5.267-0.966
			c3.252-2.913,6.7-5.571,10.798-7.244c0.289-0.117,0.524-0.36,0.797-0.524c2.528-1.521,5.046-3.056,7.594-4.541
			c0.928-0.541,1.937-0.939,2.894-1.433c1.756-0.904,2.495-2.326,2.343-4.321c-0.181-2.379,0.572-3.042,2.928-3.179
			c2.146-0.125,4.322-0.253,6.413-0.71c5.532-1.212,11.042-2.535,16.529-3.94c5.774-1.478,11.612-2.157,17.569-2.02
			c1.583,0.036,3.184-0.251,4.763-0.483c3.102-0.458,4.907,0.475,6.667,3.073c1.786,2.639,3.597,5.318,5.778,7.617
			c3.049,3.212,6.38,6.17,9.733,9.071c1.723,1.491,3.036,3.151,3.755,5.284c1.422,4.225,3.487,8.127,5.861,11.882
			c0.683,1.079,1.215,2.253,1.907,3.323c0.799,1.236,1.712,2.396,2.551,3.607c1.452,2.095,2.885,4.201,4.323,6.306
			c0.223,0.326,0.375,0.721,0.654,0.984c1.275,1.205,2.596,2.365,3.876,3.566c0.277,0.261,0.575,0.593,0.667,0.944
			c1.341,5.146,3.874,9.77,6.288,14.447c0.802,1.554,1.578,3.121,2.402,4.753c-0.299,0.055-0.485,0.095-0.673,0.122
			c-3.716,0.547-7.424,1.17-11.153,1.606c-1.865,0.218-2.778,1.404-3.579,2.815c-0.112,0.198,0.051,0.656,0.223,0.896
			c1.846,2.574,4.254,4.103,7.45,4.747c8.844,1.781,17.658,3.708,26.282,6.428c4.966,1.566,10.066,2.543,15.303,2.672
			c8.036,0.198,16.07,0.499,24.106,0.618c26.033,0.385,52.066,0.712,78.1,1.046c2.547,0.032,3.635-0.896,4.123-3.394
			c0.93-4.755,2.258-9.384,4.176-13.843c0.374-0.869,0.639-1.822,0.755-2.761c0.458-3.689,0.807-7.392,1.252-11.082
			c1.36-11.283,3.356-22.434,6.851-33.282c0.459-1.425,0.707-2.953,0.806-4.45c0.108-1.646-0.815-2.817-2.354-3.393
			c-0.738-0.277-1.539-0.474-2.324-0.527c-3.231-0.219-6.473-0.302-9.701-0.555c-18.079-1.414-36.135-0.34-54.192,0.465
			c-5.909,0.263-11.798,0.787-17.718-0.086c-2.283-0.336-4.063-1.071-5.395-2.983c-0.476-0.684-1.501-1.021-1.881-1.729
			c-2.204-4.11-4.364-8.24-5.83-12.707c-1.03-3.141-2.233-6.236-3.549-9.271c-1.192-2.751-3.329-4.451-6.194-5.611
			c-4.299-1.74-8.406-3.953-12.05-5.703c3.702-3.961,7.421-7.816,10.987-11.808c1.718-1.923,3.404-3.963,4.628-6.21
			c0.91-1.672,1.481-3.175,3.691-3.451c1.26-0.158,2.479-0.856,3.651-1.438c1.228-0.609,2.554-1.186,3.526-2.104
			c2.323-2.194,4.469-4.577,6.674-6.896c0.354-0.373,0.728-0.769,0.948-1.224c1.13-2.331,2.303-4.648,3.283-7.044
			c0.85-2.075,1.568-4.306,0.959-6.538c-0.422-1.549-0.061-2.793,0.532-4.105c0.377-0.836,0.729-1.687,1.152-2.5
			c2.358-4.53,4.649-9.099,7.146-13.552c1.062-1.894,2.441-3.653,3.903-5.268c2.053-2.267,4.704-2.82,7.676-2.108
			c1.075,0.258,2.209,0.39,3.314,0.381c7.93-0.062,14.929-3.079,21.647-6.937c3.087-1.773,5.748-4.061,7.871-6.923
			c0.824-1.11,1.583-2.298,2.175-3.544c0.661-1.392,0.215-2.475-1.166-3.011c-4.758-1.849-9.512-3.714-14.319-5.425
			c-2.059-0.732-4.246-1.101-6.487-1.662c0.519-0.321,0.923-0.57,1.327-0.82c6.264-3.867,10.994-9.086,13.937-15.865
			c0.65-1.498,1.095-3.093,1.821-4.549c2.826-5.665,4.477-11.608,4.531-17.963C431.782,86.307,431.777,85.681,431.777,85.054z
			 M229.217,341.594c0-0.092,0-0.184,0-0.274c13.113,0,26.226-0.021,39.339,0.011c5.116,0.013,10.232,0.159,15.35,0.217
			c2.098,0.023,3.233-1.884,2.261-3.73c-0.533-1.012-1.444-1.296-2.511-1.302c-11.754-0.064-23.508-0.228-35.261-0.183
			c-20.229,0.078-40.457,0.303-60.686,0.422c-4.396,0.026-8.794-0.131-13.191-0.208c-1.131-0.02-2.069,0.307-2.499,1.451
			c-0.396,1.057-0.331,2.167,0.566,2.855c0.602,0.463,1.524,0.71,2.304,0.712C192.999,341.603,211.108,341.594,229.217,341.594z
			 M199.781,331.304c7.543,0.174,17.25,0.398,26.958,0.62c1.724,0.039,2.625-0.678,2.716-2.152c0.101-1.632-0.875-2.755-2.524-2.865
			c-1.316-0.087-2.634-0.15-3.952-0.202c-18.192-0.72-36.363-0.074-54.53,0.838c-1.812,0.091-2.833,1.161-2.739,2.776
			c0.092,1.583,1.118,2.32,3.027,2.241C178.359,332.163,187.983,331.78,199.781,331.304z M189.71,318.471c0-0.137,0-0.272,0-0.408
			c-3.917,0-7.833,0.009-11.748-0.005c-1.633-0.006-2.598,0.766-2.704,2.229c-0.111,1.522,0.902,2.753,2.472,2.785
			c8.191,0.168,16.383,0.303,24.575,0.417c1.26,0.019,2.079-0.842,2.19-2.088c0.151-1.69-0.845-2.899-2.557-2.917
			C197.862,318.442,193.786,318.471,189.71,318.471z"/>
		<path fill-rule="evenodd" clip-rule="evenodd" fill="#011712" d="M431.777,85.054c0,0.626,0.005,1.252,0,1.879
			c-0.055,6.355-1.705,12.299-4.531,17.963c-0.727,1.457-1.171,3.051-1.821,4.549c-2.942,6.778-7.673,11.998-13.937,15.865
			c-0.404,0.25-0.809,0.499-1.327,0.82c2.241,0.562,4.429,0.93,6.487,1.662c4.808,1.711,9.562,3.576,14.319,5.425
			c1.381,0.537,1.827,1.619,1.166,3.011c-0.592,1.246-1.351,2.434-2.175,3.544c-2.123,2.862-4.784,5.15-7.871,6.923
			c-6.719,3.858-13.718,6.875-21.647,6.937c-1.105,0.009-2.239-0.123-3.314-0.381c-2.972-0.711-5.623-0.159-7.676,2.108
			c-1.462,1.615-2.842,3.374-3.903,5.268c-2.497,4.453-4.788,9.022-7.146,13.552c-0.424,0.813-0.775,1.664-1.152,2.5
			c-0.593,1.312-0.954,2.556-0.532,4.105c0.609,2.232-0.109,4.463-0.959,6.538c-0.98,2.396-2.153,4.713-3.283,7.044
			c-0.221,0.455-0.594,0.851-0.948,1.224c-2.205,2.319-4.351,4.702-6.674,6.896c-0.973,0.919-2.299,1.495-3.526,2.104
			c-1.173,0.582-2.392,1.28-3.651,1.438c-2.21,0.276-2.781,1.779-3.691,3.451c-1.224,2.247-2.91,4.287-4.628,6.21
			c-3.566,3.991-7.285,7.847-10.987,11.808c3.644,1.75,7.751,3.963,12.05,5.703c2.865,1.16,5.002,2.86,6.194,5.611
			c1.315,3.034,2.519,6.13,3.549,9.271c1.466,4.467,3.626,8.597,5.83,12.707c0.38,0.708,1.405,1.045,1.881,1.729
			c1.331,1.912,3.111,2.647,5.395,2.983c5.92,0.873,11.809,0.349,17.718,0.086c18.058-0.805,36.113-1.879,54.192-0.465
			c3.229,0.253,6.47,0.336,9.701,0.555c0.785,0.054,1.586,0.25,2.324,0.527c1.538,0.575,2.462,1.747,2.354,3.393
			c-0.099,1.497-0.347,3.025-0.806,4.45c-3.494,10.849-5.49,21.999-6.851,33.282c-0.445,3.69-0.794,7.393-1.252,11.082
			c-0.116,0.938-0.381,1.892-0.755,2.761c-1.918,4.459-3.246,9.088-4.176,13.843c-0.488,2.498-1.576,3.426-4.123,3.394
			c-26.033-0.334-52.066-0.661-78.1-1.046c-8.036-0.119-16.07-0.42-24.106-0.618c-5.236-0.129-10.337-1.105-15.303-2.672
			c-8.624-2.72-17.438-4.646-26.282-6.428c-3.196-0.645-5.604-2.173-7.45-4.747c-0.172-0.24-0.335-0.698-0.223-0.896
			c0.801-1.411,1.714-2.598,3.579-2.815c3.729-0.437,7.438-1.06,11.153-1.606c0.188-0.027,0.374-0.067,0.673-0.122
			c-0.824-1.632-1.601-3.199-2.402-4.753c-2.414-4.678-4.947-9.301-6.288-14.447c-0.092-0.352-0.39-0.684-0.667-0.944
			c-1.28-1.201-2.601-2.361-3.876-3.566c-0.279-0.264-0.432-0.658-0.654-0.984c-1.438-2.104-2.871-4.211-4.323-6.306
			c-0.839-1.211-1.752-2.371-2.551-3.607c-0.692-1.07-1.225-2.244-1.907-3.323c-2.374-3.755-4.439-7.657-5.861-11.882
			c-0.719-2.133-2.032-3.793-3.755-5.284c-3.354-2.901-6.685-5.859-9.733-9.071c-2.182-2.299-3.992-4.979-5.778-7.617
			c-1.76-2.599-3.565-3.531-6.667-3.073c-1.579,0.232-3.18,0.52-4.763,0.483c-5.957-0.138-11.795,0.542-17.569,2.02
			c-5.487,1.405-10.997,2.729-16.529,3.94c-2.09,0.457-4.267,0.585-6.413,0.71c-2.356,0.137-3.109,0.8-2.928,3.179
			c0.152,1.995-0.586,3.417-2.343,4.321c-0.957,0.493-1.966,0.892-2.894,1.433c-2.548,1.485-5.066,3.021-7.594,4.541
			c-0.273,0.164-0.508,0.407-0.797,0.524c-4.098,1.673-7.546,4.331-10.798,7.244c-1.625,1.455-3.206,1.686-5.267,0.966
			c-1.926-0.672-4.006-1.01-6.047-1.212c-1.893-0.187-3.142,0.971-4.117,2.57c-1.304,2.138-2.599,4.324-4.211,6.224
			c-3.854,4.542-7.852,8.959-12.565,12.671c-2.382,1.877-3.448,4.385-3.27,7.479c0.084,1.455-0.106,2.956-0.382,4.396
			c-0.771,4.035-0.047,7.685,2.426,10.996c2.726,3.653,4.793,7.646,5.779,12.121c0.325,1.475,0.393,3.007,0.542,4.516
			c0.106,1.076-0.384,1.666-1.471,1.955c-5.423,1.442-10.647,0.916-15.583-1.696c-2.568-1.359-5.004-2.983-7.434-4.587
			c-1.694-1.117-2.243-2.934-2.52-4.846c-0.902-6.222-0.465-12.448-0.126-18.68c0.34-6.265,0.96-12.532,0.128-18.805
			c-0.21-1.583-0.476-3.161-0.775-4.73c-0.204-1.069,0.096-1.928,0.738-2.782c1.63-2.173,3.281-4.338,4.771-6.605
			c2.351-3.58,1.644-6.506-1.754-9.121c-1.465-1.126-2.733-2.577-3.866-4.054c-2.992-3.899-5.857-7.896-8.782-11.849
			c-1.462-1.975-2.315-2.109-4.253-0.616c-1.266,0.975-2.642,1.878-3.671,3.069c-1.259,1.458-2.262,3.151-3.272,4.806
			c-0.626,1.025-0.725,2.115,0.367,3.013c0.165,0.135,0.259,0.41,0.298,0.636c0.41,2.321,0.918,4.633,1.158,6.972
			c0.157,1.532-0.053,3.106-0.147,4.659c-0.448,7.382-1.068,14.757-1.32,22.146c-0.178,5.227-0.104,10.534,2.033,15.454
			c1.088,2.506,2.523,4.888,4.03,7.175c1.331,2.019,2.249,4.084,2.492,6.507c0.403,4.016,1.095,8.007,1.357,12.028
			c0.186,2.855-0.046,5.752-0.296,8.612c-0.057,0.646-0.844,1.451-1.499,1.786c-2.86,1.466-5.885,1.631-8.972,0.749
			c-6.29-1.796-12.034-4.661-17.241-8.637c-2.792-2.132-4.714-4.801-5.856-8.128c-2.236-6.519-3.3-13.242-3.755-20.085
			c-0.578-8.697-1.037-17.403-1.753-26.09c-0.274-3.328-0.868-6.678-1.751-9.898c-1.56-5.686-1.422-11.277-0.031-16.938
			c1.151-4.686,2.353-9.37,3.226-14.111c1.326-7.202,0.484-14.332-1.283-21.383c-1.734-6.919-4.268-13.545-7.34-19.966
			c-0.504-1.055-1.271-2.054-2.124-2.858c-1.645-1.551-2.376-3.402-2.606-5.608c-0.404-3.894-0.922-7.776-1.443-11.657
			c-0.209-1.559-1.854-2.209-3.091-1.201c-0.695,0.566-1.397,1.268-1.769,2.062c-2.604,5.562-5.164,11.146-7.649,16.762
			c-0.853,1.927-1.829,3.689-3.363,5.183c-0.676,0.657-1.101,1.657-1.425,2.577c-2.187,6.209-4.312,12.439-6.464,18.661
			c-0.565,1.634-0.615,1.65-2.332,1.167c-3.08-0.868-5.568,0.552-6.416,3.654c-0.568,2.08-0.776,4.163-0.067,6.255
			c0.34,1.002,0.03,1.654-0.938,2.131c-2.095,1.031-4.131,1.166-6.129-0.188c-1.023-0.694-2.094-1.341-3.022-2.148
			c-1.887-1.643-1.705-3.391,0.344-4.825c1.731-1.213,3.449-2.45,5.11-3.757c1.899-1.493,2.648-3.416,1.998-5.84
			c-0.476-1.774,0.022-3.227,1.45-4.498c2.687-2.394,5.364-4.815,7.834-7.425c1.344-1.42,2.492-3.14,3.313-4.917
			c1.888-4.087,3.281-8.415,5.318-12.42c2.694-5.294,5.793-10.384,8.777-15.526c0.354-0.61,1.111-0.976,1.633-1.503
			c0.793-0.8,1.703-1.547,2.27-2.493c0.583-0.972,0.735-2.193,1.217-3.239c1.165-2.527,2.233-5.124,3.66-7.5
			c3.781-6.299,7.691-12.521,11.646-18.713c0.867-1.357,2.005-2.612,3.24-3.652c4.006-3.372,8.149-6.581,12.166-9.942
			c1.429-1.196,2.644-2.647,3.956-3.982c0.476-0.483,0.89-1.055,1.438-1.432c2.396-1.649,4.124-3.869,5.59-6.33
			c5.173-8.683,12.04-15.568,20.823-20.723c13.961-8.193,28.514-15.22,42.973-22.437c6.728-3.357,13.106-7.249,18.628-12.325
			c3.633-3.34,6.926-7.089,10.107-10.875c8.454-10.063,17.433-19.527,29.112-25.914c2.117-1.158,4.676-1.494,7.013-2.265
			c5.205-1.717,10.603-1.832,15.999-2.017c5.472-0.188,10.948-0.675,16.411-0.541c5.543,0.136,11.103,0.653,16.593,1.438
			c2.577,0.368,5.081,1.601,7.49,2.719c2.892,1.342,5.646,2.979,8.459,4.491c0.246,0.132,0.531,0.24,0.711,0.438
			c2.797,3.098,6.67,4.559,10.253,6.287c3.408,1.644,7.188,3.04,10.91,3.376c4.375,0.395,8.645,1.014,12.794,2.299
			c2.647,0.82,5.164,2.094,7.688,3.275c1.841,0.862,3.581,1.937,5.394,2.862c7.353,3.756,13.705,8.794,19.075,15.039
			c1.58,1.838,2.983,3.866,4.218,5.955c1.574,2.665,3.74,4.347,6.684,5.257c7.469,2.31,14.364,5.768,20.479,10.683
			c0.653,0.525,1.106,1.314,1.606,2.012c0.348,0.484,0.546,1.088,0.934,1.529c3.263,3.706,5.184,8.225,7.613,12.435
			c0.618,1.071,1.281,2.118,1.948,3.16c0.433,0.675,1.049,0.995,1.847,0.691c7.274-2.767,14.706-5.239,20.594-10.673
			c1.498-1.383,2.95-2.817,4.385-4.267c0.475-0.48,0.827-1.08,1.236-1.625C431.441,84.859,431.609,84.957,431.777,85.054z
			 M332.491,170.02c0.174,0.009,0.347,0.019,0.52,0.029c0.275,0.806,0.718,1.596,0.798,2.42c0.479,4.894,3.083,8.995,4.928,13.373
			c0.406,0.964,1.129,1.869,1.902,2.589c2.811,2.613,5.68,5.16,9.235,6.782c1.414,0.645,2.764,1.436,4.121,2.197
			c2.93,1.644,5.336,1.303,7.684-1.124c1.085-1.121,2.104-2.313,3.266-3.349c1.771-1.582,3.042-3.478,3.963-5.64
			c0.141-0.33,0.279-0.67,0.481-0.962c1.459-2.1,1.589-4.309,0.5-6.581c-0.384-0.8-0.177-1.389,0.234-2.108
			c0.947-1.659,1.997-3.31,2.613-5.099c2.57-7.463,6.638-14.034,11.588-20.11c0.176-0.217,0.354-0.437,0.495-0.677
			c1.139-1.937,2.716-3.427,4.58-4.663c2.34-1.553,4.024-3.676,4.878-6.349c0.897-2.813,1.677-5.667,2.42-8.526
			c0.228-0.871,0.262-1.822,0.221-2.729c-0.321-7.063-0.317-14.146-1.396-21.165c-0.461-2.998-0.245-6.154-1.063-9.031
			c-2.732-9.608-8.657-16.563-18.176-20.07c-4.301-1.584-8.895-1.841-13.406-2.449c-2.441-0.329-4.873-0.859-7.245-1.527
			c-1.812-0.51-2.008-1.435-0.893-2.939c0.667-0.898,1.372-1.77,2.106-2.614c0.594-0.683,0.688-1.347,0.336-2.198
			c-1.627-3.922-4.271-7.2-6.692-10.615c-0.473-0.666-1.159-1.234-1.854-1.681c-4.066-2.615-8.188-5.144-12.246-7.772
			c-3.204-2.076-6.875-2.953-10.368-4.305c-2.961-1.147-5.99-1.793-9.12-1.752c-2.507,0.033-4.84-0.424-7.073-1.483
			c-4.36-2.067-8.764-4.053-13.045-6.276c-3.678-1.91-7.18-4.156-10.812-6.16c-7.709-4.253-16.082-5.644-24.758-5.349
			c-5.19,0.176-10.376,0.614-15.551,1.075c-3.899,0.347-7.812,0.731-11.659,1.43c-5.872,1.066-11.175,3.773-16.45,6.42
			c-1.48,0.743-2.689,2.111-3.872,3.337c-1.608,1.667-2.981,3.563-4.614,5.203c-8.572,8.607-15.635,18.503-23.652,27.583
			c-0.619,0.701-0.511,1.389,0.175,1.986c0.664,0.577,1.343,1.138,2.021,1.697c3.547,2.925,7.117,5.824,10.637,8.781
			c1.766,1.483,3.483,3.029,5.146,4.626c1.052,1.01,1.393,2.386,1.061,3.772c-0.773,3.223-2.382,6.05-4.841,8.246
			c-2.179,1.947-2.203,3.509,0.304,5.091c3.007,1.898,6.071,3.712,9.026,5.689c1.516,1.015,3.019,2.151,4.228,3.501
			c3.744,4.181,5.142,9.335,5.429,14.783c0.134,2.534-0.357,5.095-0.414,7.647c-0.132,5.912-0.396,11.834-0.169,17.735
			c0.154,4.005-0.339,7.735-1.742,11.482c-2.223,5.94-3.871,12.092-6.767,17.785c-4.88,9.593-8.999,19.505-12.177,29.795
			c-0.386,1.251-0.755,2.565-0.782,3.857c-0.052,2.547,0.19,5.098,0.218,7.647c0.026,2.321,0.87,4.218,2.715,5.605
			c1.467,1.104,2.986,2.145,4.532,3.136c0.812,0.521,1.094,1.13,1.013,2.09c-0.242,2.867-0.446,5.739-0.568,8.613
			c-0.071,1.668,0.803,2.432,2.457,2.322c0.996-0.066,2.001-0.126,2.981-0.306c6.324-1.156,12.648-2.315,18.96-3.536
			c2.589-0.501,4.624-1.912,5.579-4.426c1.016-2.676,1.85-5.424,2.663-8.17c0.209-0.707,0.434-1.185,1.122-1.527
			c3.984-1.99,7.693-4.41,11.106-7.277c0.132-0.11,0.296-0.182,0.437-0.267c0.33,1.517,0.56,2.982,0.971,4.396
			c1.691,5.819,5.415,10.226,9.822,14.199c1.828,1.648,3.599,3.437,5.038,5.421c1.964,2.709,3.57,5.676,5.373,8.505
			c0.258,0.404,0.707,0.76,1.148,0.962c3.35,1.54,6.044,3.68,7.307,7.327c0.625,1.806,1.489,3.528,2.185,5.312
			c1.332,3.422,2.523,6.903,3.976,10.272c0.615,1.429,1.523,2.888,2.683,3.891c1.635,1.413,2.58,3.173,3.647,4.95
			c1.037,1.726,2.251,3.393,3.638,4.847c1.223,1.281,2.42,1.181,3.868,0.177c0.722-0.502,1.419-1.038,2.131-1.556
			c3.07-2.229,6.126-4.481,9.221-6.679c1.613-1.146,1.791-1.31,1.247-3.224c-0.401-1.411-0.906-2.818-1.567-4.126
			c-1.493-2.954-3.212-5.797-4.657-8.772c-2.648-5.457-5.158-10.981-7.745-16.469c-0.372-0.788-0.687-1.702-1.298-2.265
			c-4.394-4.036-6.353-9.197-7.099-14.943c-0.641-4.941-1.883-9.688-3.987-14.238c-1.824-3.946-3.359-8.025-5.029-12.064
			c0.197-0.162,0.335-0.311,0.502-0.406c6.236-3.562,11.307-8.469,15.938-13.869c0.831-0.97,1.7-1.58,2.995-1.208
			c1.314,0.378,1.778,1.406,1.85,2.653c0.172,2.991,0.319,5.983,0.47,8.977c0.021,0.396,0.003,0.794,0.003,1.191
			c0.14,0.033,0.279,0.066,0.419,0.099c0.75-1.259,1.597-2.473,2.225-3.79c0.873-1.831,1.615-3.728,2.35-5.621
			c0.451-1.168,1.249-1.6,2.435-1.417c1.218,0.188,2.391,1.216,2.425,2.326c0.148,4.789,0.38,9.583,0.293,14.369
			c-0.07,3.896-0.521,7.784,0.132,11.902c0.288-0.566,0.497-0.967,0.697-1.372c1.363-2.754,2.689-5.528,4.106-8.255
			c0.577-1.111,2.365-1.903,3.357-1.631c1.285,0.353,1.427,1.54,1.449,2.509c0.105,4.673,0.081,9.349,0.1,14.023
			c0.006,1.411,0.001,2.822,0.001,4.359c0.286-0.22,0.493-0.388,0.709-0.545c4.068-2.963,8.162-5.894,12.2-8.896
			c2.915-2.168,5.856-4.321,8.59-6.705c1.217-1.061,2.106-2.594,2.864-4.058c0.869-1.68,0.609-2.303-0.865-3.509
			c-3.279-2.685-6.479-5.479-9.883-7.997c-5.441-4.027-9.032-14.287-5.971-20.974c0.613-1.339,0.986-2.786,1.539-4.155
			C331.775,170.939,332.178,170.498,332.491,170.02z M142.896,196.754c0.124,0.009,0.248,0.018,0.373,0.026
			c0.161,0.469,0.419,0.927,0.468,1.407c0.439,4.317,0.345,8.628-0.866,12.812c-1.047,3.62-2.409,7.147-3.514,10.752
			c-0.918,2.995-1.716,6.03-2.458,9.075c-0.259,1.062-0.427,2.249-0.232,3.304c0.951,5.147,2.878,9.878,6.019,14.142
			c1.374,1.864,2.372,4.03,3.365,6.141c0.627,1.332,1.423,2.398,2.734,3.031c6.376,3.076,12.796,6.056,19.8,7.454
			c1.807,0.361,3.627,1.321,5.482,0.511c1.217-0.531,2.298-1.387,3.41-2.144c2.295-1.562,4.331-3.474,7.057-4.421
			c2.918-1.014,5.762-2.264,8.57-3.56c1.674-0.772,2.571-2.204,2.508-4.145c-0.022-0.673,0.004-1.365,0.139-2.021
			c0.808-3.926,1.672-7.84,2.48-11.766c0.675-3.282,0.688-3.352-2.232-4.958c-3.002-1.651-4.635-4.213-5.195-7.476
			c-0.976-5.689-0.612-11.344,0.566-16.982c1.178-5.64,3.293-10.911,5.619-16.164c3.494-7.89,6.456-16.02,11.102-23.36
			c0.127-0.201,0.234-0.416,0.346-0.627c3.192-6.042,5.212-12.379,4.905-19.315c-0.191-4.311-0.247-8.63-0.52-12.936
			c-0.282-4.451-0.525-8.925-1.196-13.327c-0.994-6.519-4.736-11.132-10.806-13.732c-3.683-1.577-7.441-2.978-11.163-4.462
			c-0.405-0.162-0.872-0.275-1.171-0.558c-0.266-0.25-0.564-0.798-0.459-1.057c1.23-3.054,2.104-6.289,4.216-8.918
			c1.326-1.651,2.709-3.257,4.102-4.853c0.738-0.847,0.754-1.563-0.093-2.353c-1.433-1.336-2.851-2.691-4.216-4.096
			c-3.964-4.076-8.691-6.956-13.917-9.115c-2.211-0.913-4.272-1.286-6.218,0.509c-0.169,0.156-0.419,0.226-0.635,0.331
			c-8.585,4.186-17.244,8.228-25.737,12.593c-11.217,5.766-22.329,11.737-31.676,20.433c-2.925,2.721-6.021,5.253-7.91,8.904
			c-3.313,6.4-7.955,11.716-13.341,16.47c-4.793,4.231-9.498,8.571-14.083,13.026c-3.307,3.213-6.079,6.848-7.379,11.429
			c-0.987,3.478-1.861,6.956-1.025,10.568c0.55,2.377,0.616,4.721,0.229,7.111c-0.355,2.198-0.773,4.395-0.946,6.609
			c-0.328,4.216,0.649,8.244,2.284,12.09c2.894,6.806,5.906,13.561,8.84,20.349c1.829,4.232,3.136,8.613,3.052,13.271
			c-0.063,3.472-0.199,6.953-0.545,10.405c-0.579,5.778-1.338,11.538-2.05,17.302c-0.302,2.447-0.774,4.876-0.999,7.329
			c-0.498,5.446,0.527,10.815,0.973,16.214c0.312,3.777,0.601,7.558,0.888,11.337c0.262,3.462,0.431,6.934,0.779,10.387
			c0.475,4.709,1.007,9.416,1.655,14.104c0.408,2.943,1.059,5.853,1.64,8.77c0.084,0.422,0.392,0.799,0.661,1.324
			c0.525-0.479,0.921-0.805,1.277-1.171c3.651-3.757,7.27-7.545,10.955-11.269c1.317-1.33,1.533-2.696,0.953-4.453
			c-0.669-2.026-1.328-4.118-1.536-6.227c-0.747-7.542-0.312-15.084,0.537-22.595c0.547-4.843,0.584-9.652-0.786-14.352
			c-1.123-3.848-1.658-7.689-0.944-11.662c1.108-6.166,3.969-11.44,8.431-15.763c5.1-4.94,10.15-9.973,16.406-13.524
			c0.312-0.177,0.606-0.385,0.9-0.592c3.67-2.585,7.261-5.264,9.736-9.115c3.084-4.8,6.14-9.617,9.201-14.432
			C142.123,198.116,142.5,197.429,142.896,196.754z M338.616,331.082c33.806,0.856,67.479,1.71,101.141,2.562
			c0.452-1.188,0.832-2.271,1.272-3.328c2.342-5.629,4.358-11.316,4.878-17.486c0.444-5.27,1.183-10.521,1.993-15.75
			c1.276-8.245,2.97-16.405,5.572-24.354c0.171-0.521,0.076-1.13,0.107-1.754c-4.879-0.12-9.553-0.223-14.226-0.355
			c-3.513-0.1-7.03-0.154-10.535-0.387c-2.737-0.182-5.451-0.751-8.189-0.893c-6.715-0.348-13.41,0.114-20.103,0.698
			c-5.284,0.462-10.576,0.913-15.874,1.133c-7.572,0.314-15.073-0.77-22.589-1.495c-4.383-0.423-8.688-0.017-12.902,1.3
			c-0.603,0.188-0.882,0.478-0.985,1.142c-0.494,3.186-1.084,6.356-1.595,9.539c-1.31,8.164-2.581,16.333-3.896,24.496
			C341.36,314.387,340,322.618,338.616,331.082z M335.986,315.896c0.102-0.547,0.192-0.974,0.261-1.404
			c0.921-5.801,1.878-11.596,2.746-17.404c1.269-8.497,2.479-17.003,3.686-25.51c0.054-0.382-0.056-0.914-0.3-1.19
			c-3.979-4.522-7.403-9.416-10.131-14.795c-0.523-1.03-1.446-1.728-2.604-1.617c-1.152,0.109-2.288,0.495-3.401,0.853
			c-0.678,0.217-1.297,0.613-1.944,0.924c-2.222,1.064-4.461,2.093-6.659,3.203c-1.066,0.538-2.002,1.353-3.092,1.821
			c-2.48,1.067-3.127,2.669-2.058,5.123c1.897,4.351,3.768,8.716,5.539,13.118c0.418,1.04,0.677,2.301,0.499,3.375
			c-0.145,0.874-0.136,1.62,0.126,2.399c0.316,0.944,0.611,1.911,1.066,2.79c4.111,7.932,8.256,15.847,12.391,23.766
			c0.52,0.996,0.632,2.068-0.05,2.952c-0.557,0.721-1.4,1.22-1.853,1.597C331.893,315.896,333.928,315.896,335.986,315.896z
			 M314.821,289.004c-0.387,0.251-0.684,0.452-0.988,0.642c-3.556,2.214-7.084,4.476-10.691,6.601
			c-0.867,0.512-1.053,0.906-0.823,1.847c1.104,4.517,3.447,8.462,5.541,12.537c0.902,1.757,2.201,2.585,4.007,2.354
			c2.876-0.367,5.787-0.742,8.56-1.542c2.921-0.842,3.443-2.233,2.565-5.13c-0.208-0.684-0.475-1.355-0.782-2
			c-2.132-4.457-4.281-8.906-6.427-13.357C315.475,290.315,315.155,289.681,314.821,289.004z M423.935,136.489
			c-2.169-0.59-4.176-1.237-6.227-1.674c-4.207-0.896-8.433-1.708-12.664-2.479c-0.641-0.117-1.467-0.532-2.011,0.43
			c-2.241,3.967-3.323,8.353-4.589,12.667c-0.322,1.101,0.408,1.894,1.576,1.875c6.267-0.096,12.31-1.153,17.766-4.461
			C420.31,141.316,422.478,139.402,423.935,136.489z M335.197,321.259c-9.885,0.299-19.557,0.592-29.229,0.885
			c-0.058,0.126-0.115,0.252-0.173,0.377c0.384,0.251,0.735,0.606,1.156,0.737c5.004,1.551,10.019,3.065,15.028,4.595
			c3.138,0.958,6.272,1.924,9.475,2.906C332.699,327.6,333.902,324.546,335.197,321.259z M404.232,109.74
			c0.396,3.456,0.775,6.751,1.156,10.068c-0.007,0.001,0.193-0.012,0.38-0.069c4.896-1.471,8.858-4.305,12.028-8.279
			c1.422-1.781,1.897-3.934,2.145-6.118c0.063-0.563-0.264-1.407-0.698-1.714c-0.349-0.246-1.228-0.034-1.71,0.25
			C413.264,106.389,408.872,108.603,404.232,109.74z M137.878,313.096c0.469-4.586,0.539-8.966,0.058-13.335
			c-0.06-0.542-0.841-1.423-1.303-1.433c-2.578-0.053-5.16,0.114-7.813,0.209c0,0.554,0.024,0.949-0.004,1.342
			c-0.247,3.502-0.484,7.005-0.77,10.505c-0.082,0.998,0.339,1.933,1.308,2.033C132.16,312.707,134.979,312.874,137.878,313.096z
			 M360.697,264.257c-0.554-0.834-1.16-1.671-1.688-2.556c-1.262-2.123-2.425-4.308-3.742-6.395
			c-1.426-2.259-1.531-2.343-3.924-1.36c-3.04,1.25-5.99,2.718-9.118,4.155c1.268,1.896,2.431,3.424,3.354,5.083
			c0.884,1.59,1.906,2.075,3.797,1.837C353.119,264.551,356.912,264.489,360.697,264.257z"/>
		<path fill-rule="evenodd" clip-rule="evenodd" fill="#031914" d="M229.217,341.594c-18.109,0-36.218,0.009-54.327-0.029
			c-0.78-0.002-1.702-0.249-2.304-0.712c-0.897-0.688-0.962-1.799-0.566-2.855c0.429-1.145,1.368-1.471,2.499-1.451
			c4.397,0.077,8.794,0.234,13.191,0.208c20.229-0.119,40.457-0.344,60.686-0.422c11.753-0.045,23.507,0.118,35.261,0.183
			c1.066,0.006,1.978,0.29,2.511,1.302c0.973,1.847-0.163,3.754-2.261,3.73c-5.117-0.058-10.233-0.204-15.35-0.217
			c-13.113-0.032-26.227-0.011-39.339-0.011C229.217,341.41,229.217,341.502,229.217,341.594z"/>
		<path fill-rule="evenodd" clip-rule="evenodd" fill="#031813" d="M199.781,331.304c-11.797,0.477-21.421,0.859-31.045,1.256
			c-1.909,0.079-2.935-0.658-3.027-2.241c-0.094-1.615,0.927-2.686,2.739-2.776c18.167-0.912,36.338-1.558,54.53-0.838
			c1.318,0.052,2.636,0.115,3.952,0.202c1.649,0.11,2.625,1.233,2.524,2.865c-0.091,1.475-0.992,2.191-2.716,2.152
			C217.031,331.702,207.324,331.478,199.781,331.304z"/>
		<path fill-rule="evenodd" clip-rule="evenodd" fill="#031813" d="M189.71,318.471c4.076,0,8.152-0.028,12.228,0.014
			c1.712,0.018,2.708,1.227,2.557,2.917c-0.111,1.246-0.93,2.106-2.19,2.088c-8.192-0.114-16.384-0.249-24.575-0.417
			c-1.57-0.032-2.583-1.263-2.472-2.785c0.106-1.464,1.071-2.235,2.704-2.229c3.916,0.014,7.832,0.005,11.748,0.005
			C189.71,318.198,189.71,318.334,189.71,318.471z"/>
		<path fill-rule="evenodd" clip-rule="evenodd" fill="#76C9B7" d="M332.491,170.02c-0.313,0.478-0.716,0.919-0.926,1.438
			c-0.553,1.369-0.926,2.816-1.539,4.155c-3.062,6.687,0.529,16.946,5.971,20.974c3.403,2.519,6.604,5.312,9.883,7.997
			c1.475,1.206,1.734,1.829,0.865,3.509c-0.758,1.464-1.647,2.997-2.864,4.058c-2.733,2.384-5.675,4.537-8.59,6.705
			c-4.038,3.003-8.132,5.934-12.2,8.896c-0.216,0.157-0.423,0.325-0.709,0.545c0-1.537,0.005-2.948-0.001-4.359
			c-0.019-4.675,0.006-9.351-0.1-14.023c-0.022-0.969-0.164-2.156-1.449-2.509c-0.992-0.272-2.78,0.52-3.357,1.631
			c-1.417,2.727-2.743,5.501-4.106,8.255c-0.2,0.405-0.409,0.806-0.697,1.372c-0.652-4.118-0.202-8.007-0.132-11.902
			c0.087-4.786-0.145-9.58-0.293-14.369c-0.034-1.11-1.207-2.139-2.425-2.326c-1.186-0.183-1.983,0.249-2.435,1.417
			c-0.734,1.894-1.477,3.79-2.35,5.621c-0.628,1.317-1.475,2.531-2.225,3.79c-0.14-0.032-0.279-0.065-0.419-0.099
			c0-0.397,0.018-0.795-0.003-1.191c-0.15-2.993-0.298-5.985-0.47-8.977c-0.071-1.247-0.535-2.275-1.85-2.653
			c-1.295-0.372-2.164,0.238-2.995,1.208c-4.631,5.4-9.701,10.307-15.938,13.869c-0.167,0.096-0.305,0.244-0.502,0.406
			c1.67,4.039,3.205,8.118,5.029,12.064c2.104,4.551,3.347,9.297,3.987,14.238c0.746,5.746,2.705,10.907,7.099,14.943
			c0.611,0.562,0.926,1.477,1.298,2.265c2.587,5.487,5.097,11.012,7.745,16.469c1.445,2.976,3.164,5.818,4.657,8.772
			c0.661,1.308,1.166,2.715,1.567,4.126c0.544,1.914,0.366,2.078-1.247,3.224c-3.095,2.197-6.15,4.449-9.221,6.679
			c-0.712,0.518-1.409,1.054-2.131,1.556c-1.448,1.004-2.646,1.104-3.868-0.177c-1.387-1.454-2.601-3.121-3.638-4.847
			c-1.067-1.777-2.013-3.537-3.647-4.95c-1.159-1.003-2.067-2.462-2.683-3.891c-1.452-3.369-2.644-6.851-3.976-10.272
			c-0.695-1.784-1.56-3.507-2.185-5.312c-1.263-3.647-3.957-5.787-7.307-7.327c-0.441-0.202-0.891-0.558-1.148-0.962
			c-1.803-2.829-3.409-5.796-5.373-8.505c-1.439-1.984-3.21-3.772-5.038-5.421c-4.407-3.974-8.131-8.38-9.822-14.199
			c-0.411-1.413-0.641-2.879-0.971-4.396c-0.141,0.085-0.305,0.156-0.437,0.267c-3.413,2.867-7.122,5.287-11.106,7.277
			c-0.688,0.343-0.913,0.82-1.122,1.527c-0.813,2.746-1.647,5.494-2.663,8.17c-0.955,2.514-2.99,3.925-5.579,4.426
			c-6.312,1.221-12.636,2.38-18.96,3.536c-0.979,0.18-1.985,0.239-2.981,0.306c-1.653,0.109-2.528-0.654-2.457-2.322
			c0.123-2.874,0.327-5.746,0.568-8.613c0.081-0.96-0.201-1.568-1.013-2.09c-1.545-0.991-3.064-2.032-4.532-3.136
			c-1.845-1.388-2.689-3.284-2.715-5.605c-0.028-2.55-0.271-5.101-0.218-7.647c0.027-1.292,0.396-2.606,0.782-3.857
			c3.179-10.29,7.297-20.202,12.177-29.795c2.896-5.693,4.544-11.844,6.767-17.785c1.402-3.747,1.896-7.477,1.742-11.482
			c-0.228-5.901,0.037-11.824,0.169-17.735c0.057-2.552,0.548-5.113,0.414-7.647c-0.287-5.447-1.685-10.602-5.429-14.783
			c-1.209-1.35-2.712-2.487-4.228-3.501c-2.955-1.978-6.019-3.791-9.026-5.689c-2.507-1.582-2.483-3.144-0.304-5.091
			c2.459-2.196,4.068-5.023,4.841-8.246c0.333-1.387-0.009-2.763-1.061-3.772c-1.663-1.597-3.38-3.143-5.146-4.626
			c-3.521-2.957-7.09-5.856-10.637-8.781c-0.679-0.56-1.357-1.12-2.021-1.697c-0.687-0.597-0.794-1.285-0.175-1.986
			c8.017-9.08,15.08-18.975,23.652-27.583c1.633-1.64,3.006-3.536,4.614-5.203c1.183-1.226,2.392-2.594,3.872-3.337
			c5.274-2.647,10.578-5.354,16.45-6.42c3.847-0.699,7.76-1.083,11.659-1.43c5.175-0.46,10.36-0.898,15.551-1.075
			c8.676-0.295,17.049,1.096,24.758,5.349c3.632,2.004,7.134,4.25,10.812,6.16c4.281,2.223,8.685,4.209,13.045,6.276
			c2.233,1.059,4.566,1.516,7.073,1.483c3.13-0.042,6.159,0.605,9.12,1.752c3.493,1.353,7.164,2.229,10.368,4.305
			c4.058,2.628,8.18,5.157,12.246,7.772c0.695,0.447,1.382,1.015,1.854,1.681c2.422,3.415,5.065,6.692,6.692,10.615
			c0.353,0.851,0.258,1.515-0.336,2.198c-0.734,0.844-1.439,1.716-2.106,2.614c-1.115,1.504-0.919,2.429,0.893,2.939
			c2.372,0.668,4.804,1.198,7.245,1.527c4.512,0.608,9.105,0.865,13.406,2.449c9.519,3.507,15.443,10.462,18.176,20.07
			c0.818,2.877,0.603,6.034,1.063,9.031c1.078,7.019,1.074,14.101,1.396,21.165c0.041,0.907,0.007,1.857-0.221,2.729
			c-0.743,2.859-1.522,5.713-2.42,8.526c-0.854,2.673-2.538,4.796-4.878,6.349c-1.864,1.236-3.441,2.727-4.58,4.663
			c-0.141,0.24-0.319,0.46-0.495,0.677c-4.95,6.077-9.018,12.647-11.588,20.11c-0.616,1.79-1.666,3.44-2.613,5.099
			c-0.411,0.719-0.618,1.308-0.234,2.108c1.089,2.272,0.959,4.481-0.5,6.581c-0.202,0.292-0.341,0.632-0.481,0.962
			c-0.921,2.162-2.191,4.058-3.963,5.64c-1.161,1.035-2.181,2.228-3.266,3.349c-2.348,2.427-4.754,2.768-7.684,1.124
			c-1.357-0.762-2.707-1.553-4.121-2.197c-3.556-1.622-6.425-4.169-9.235-6.782c-0.773-0.72-1.496-1.625-1.902-2.589
			c-1.845-4.378-4.449-8.479-4.928-13.373c-0.08-0.825-0.522-1.614-0.798-2.42C332.838,170.039,332.665,170.029,332.491,170.02z
			 M299.286,110.043c2.608,0,5.151-0.312,7.591,0.06c6.824,1.037,13.599,2.401,20.409,3.536c1.864,0.311,3.802,0.456,5.681,0.325
			c1.57-0.109,2.447-1.352,2.729-2.773c0.147-0.744,0.426-1.528,0.863-2.138c3.581-4.995,7.214-9.954,10.895-15.011
			c-2.919-2.585-5.648-5.16-8.543-7.534c-5.87-4.812-11.85-9.491-17.738-14.281c-1.576-1.283-3.01-2.748-4.466-4.172
			c-1.531-1.499-2.76-3.207-3.377-5.301c-0.069-0.232-0.247-0.432-0.553-0.947c-0.528,1.242-1.153,2.184-1.313,3.2
			c-0.316,2-0.643,4.061-0.487,6.06c0.359,4.616,0.938,9.218,1.547,13.81c0.801,6.038,3.047,11.464,7.119,16.076
			c1.402,1.588,2.732,3.239,4.09,4.866c0.181,0.216,0.332,0.457,0.666,0.92c-3.255-0.7-6.215-1.339-9.177-1.973
			c-6.886-1.475-13.798-2.741-20.888-2.552c-2.206,0.059-3.256,1.573-2.519,3.644c1.529,4.301,3.778,8.194,6.76,11.645
			c7.789,9.012,18.063,13.735,29.255,16.84c1.28,0.355,2.452-0.471,2.822-1.796c0.36-1.29-0.171-2.479-1.387-2.941
			c-0.781-0.297-1.604-0.485-2.406-0.729c-7.832-2.388-15.174-5.709-21.331-11.265C303.091,115.408,300.991,112.927,299.286,110.043
			z M228.804,147.116c-0.467-4.688-0.929-9.376-1.406-14.063c-0.146-1.43-0.26-2.868-0.52-4.279c-0.276-1.5-1.588-2.298-3.149-2.072
			c-1.292,0.187-1.838,1.017-1.742,2.65c0.014,0.239,0.035,0.479,0.058,0.717c0.435,4.332,0.97,8.657,1.283,12.997
			c0.503,6.973-0.17,13.813-2.903,20.333c-1.574,3.753-3.26,7.459-4.825,11.217c-1.371,3.292-2.351,6.703-2.702,10.271
			c-0.097,0.98,0.078,1.856,1.034,2.354c0.967,0.503,2.034,0.509,2.813-0.199c0.563-0.512,0.95-1.35,1.141-2.111
			c0.465-1.853,0.531-3.833,1.188-5.603c1.609-4.333,3.348-8.627,5.245-12.842C227.096,160.314,228.855,153.958,228.804,147.116z
			 M346.495,123.826c-2.937-0.039-4.59,0.926-5.044,2.502c-0.44,1.528,0.345,3.485,1.968,4.225c2.659,1.211,5.412,2.164,8.434,1.721
			c1.868-0.273,2.655-0.859,2.96-2.284c0.37-1.73-0.224-3.311-1.756-4.077C350.766,124.768,348.362,123.917,346.495,123.826z
			 M382.05,132.452c-2.729-0.041-4.947,1.589-5.262,3.236c-0.328,1.719,0.796,3.364,2.858,4.179
			c0.111,0.044,0.229,0.073,0.344,0.104c1.539,0.413,3.068,0.872,4.621,1.226c1.81,0.412,3.669-0.398,4.672-1.935
			c0.981-1.504,0.376-4.367-1.281-5.006C385.821,133.415,383.521,132.885,382.05,132.452z M357.466,191.788
			c0.014-0.079,0.026-0.158,0.04-0.237c0.719,0,1.438,0.027,2.154-0.006c1.24-0.059,2.075-0.852,2.243-2.077
			c0.229-1.676-0.835-2.77-2.664-2.921c-2.613-0.216-5.23-0.447-7.821-0.84c-1.697-0.257-2.784,0.163-3.195,1.624
			c-0.439,1.562,0.25,2.862,1.958,3.223C352.588,191.063,355.035,191.386,357.466,191.788z M343.83,118.965
			c-0.021,0.092-0.043,0.183-0.064,0.274c-0.119-0.009-0.239-0.009-0.357-0.029c-0.946-0.159-1.619,0.152-1.676,1.173
			c-0.059,1.07,0.889,0.915,1.518,1.043c1.012,0.207,2.061,0.247,3.06,0.494c3.208,0.795,6.398,1.666,9.604,2.468
			c0.364,0.091,1.071,0.039,1.134-0.127c0.179-0.482,0.269-1.12,0.088-1.575c-0.14-0.352-0.71-0.644-1.141-0.752
			C351.946,120.918,347.887,119.948,343.83,118.965z M379.266,127.623c-0.879-0.118-1.52,0.071-1.68,1.067
			c-0.111,0.689,0.171,1.04,0.84,1.186c4.084,0.889,8.16,1.812,12.254,2.656c0.378,0.078,0.853-0.311,1.283-0.483
			c-0.23-0.485-0.34-1.254-0.709-1.411C387.416,129.014,383.341,128.286,379.266,127.623z"/>
		<path fill-rule="evenodd" clip-rule="evenodd" fill="#76C9B7" d="M142.896,196.754c-0.396,0.675-0.773,1.362-1.192,2.021
			c-3.061,4.814-6.116,9.632-9.201,14.432c-2.476,3.852-6.066,6.53-9.736,9.115c-0.293,0.207-0.588,0.415-0.9,0.592
			c-6.256,3.552-11.306,8.584-16.406,13.524c-4.462,4.322-7.323,9.597-8.431,15.763c-0.714,3.973-0.179,7.814,0.944,11.662
			c1.37,4.699,1.333,9.509,0.786,14.352c-0.85,7.511-1.284,15.053-0.537,22.595c0.208,2.108,0.867,4.2,1.536,6.227
			c0.581,1.757,0.364,3.123-0.953,4.453c-3.686,3.724-7.304,7.512-10.955,11.269c-0.355,0.366-0.751,0.691-1.277,1.171
			c-0.269-0.525-0.576-0.902-0.661-1.324c-0.582-2.917-1.232-5.826-1.64-8.77c-0.648-4.688-1.181-9.395-1.655-14.104
			c-0.348-3.453-0.517-6.925-0.779-10.387c-0.287-3.779-0.576-7.56-0.888-11.337c-0.445-5.398-1.47-10.768-0.973-16.214
			c0.224-2.453,0.696-4.882,0.999-7.329c0.712-5.764,1.471-11.523,2.05-17.302c0.346-3.452,0.482-6.934,0.545-10.405
			c0.084-4.657-1.223-9.038-3.052-13.271c-2.934-6.788-5.947-13.543-8.84-20.349c-1.635-3.846-2.612-7.874-2.284-12.09
			c0.172-2.214,0.591-4.412,0.946-6.609c0.386-2.39,0.321-4.733-0.229-7.111c-0.836-3.612,0.038-7.091,1.025-10.568
			c1.3-4.582,4.072-8.216,7.379-11.429c4.585-4.455,9.29-8.795,14.083-13.026c5.386-4.753,10.028-10.07,13.341-16.47
			c1.89-3.651,4.985-6.184,7.91-8.904c9.348-8.695,20.459-14.667,31.676-20.433c8.493-4.365,17.152-8.407,25.737-12.593
			c0.215-0.105,0.465-0.175,0.635-0.331c1.946-1.795,4.007-1.422,6.218-0.509c5.226,2.159,9.953,5.039,13.917,9.115
			c1.366,1.404,2.784,2.76,4.216,4.096c0.847,0.79,0.831,1.506,0.093,2.353c-1.392,1.596-2.775,3.202-4.102,4.853
			c-2.111,2.629-2.986,5.864-4.216,8.918c-0.105,0.259,0.194,0.807,0.459,1.057c0.299,0.283,0.767,0.396,1.171,0.558
			c3.722,1.485,7.48,2.885,11.163,4.462c6.07,2.6,9.812,7.213,10.806,13.732c0.671,4.401,0.914,8.875,1.196,13.327
			c0.273,4.306,0.329,8.625,0.52,12.936c0.307,6.937-1.713,13.273-4.905,19.315c-0.112,0.211-0.218,0.426-0.346,0.627
			c-4.646,7.34-7.607,15.47-11.102,23.36c-2.326,5.253-4.441,10.524-5.619,16.164c-1.178,5.639-1.542,11.293-0.566,16.982
			c0.56,3.263,2.193,5.824,5.195,7.476c2.921,1.606,2.908,1.676,2.232,4.958c-0.808,3.926-1.673,7.84-2.48,11.766
			c-0.135,0.656-0.161,1.349-0.139,2.021c0.063,1.94-0.834,3.372-2.508,4.145c-2.808,1.296-5.652,2.546-8.57,3.56
			c-2.726,0.947-4.762,2.859-7.057,4.421c-1.111,0.757-2.193,1.612-3.41,2.144c-1.855,0.811-3.675-0.149-5.482-0.511
			c-7.004-1.398-13.424-4.378-19.8-7.454c-1.311-0.633-2.107-1.699-2.734-3.031c-0.994-2.11-1.991-4.276-3.365-6.141
			c-3.141-4.264-5.068-8.994-6.019-14.142c-0.194-1.055-0.027-2.241,0.232-3.304c0.742-3.045,1.54-6.08,2.458-9.075
			c1.105-3.604,2.466-7.132,3.514-10.752c1.211-4.185,1.305-8.495,0.866-12.812c-0.049-0.48-0.307-0.938-0.468-1.407
			C143.144,196.771,143.02,196.763,142.896,196.754z M179.836,80.148c-0.011-2.013-1.455-2.94-3.568-2.261
			c-21.576,6.934-40.299,18.603-56.654,34.186c-6.122,5.833-11.669,12.175-16.643,19.015c-0.899,1.237-0.859,2.228,0.079,3.101
			c1.004,0.935,2.638,1.017,3.611,0.133c0.379-0.345,0.68-0.782,0.99-1.197c14.128-18.953,31.917-33.492,53.19-43.707
			c5.452-2.617,11.239-4.538,16.886-6.743C179.25,82.081,179.844,81.462,179.836,80.148z M116.325,216.168
			c0.054,1.544,0.598,2.39,1.634,2.849c1.035,0.458,1.947,0.17,2.702-0.661c2.553-2.813,5.174-5.567,7.65-8.447
			c4.191-4.873,7.876-10.09,10.025-16.223c0.645-1.84,1.117-3.751,1.527-5.659c0.304-1.412-0.728-2.708-2.15-2.979
			c-1.376-0.261-2.366,0.329-2.641,1.749c-1.311,6.774-4.563,12.594-8.898,17.828c-2.803,3.386-5.84,6.575-8.743,9.879
			C116.927,215.077,116.576,215.784,116.325,216.168z M89.442,211.684c-0.011-0.156-0.03-0.396-0.045-0.635
			c-0.424-6.43-2.271-12.489-5.099-18.219c-1.833-3.714-4.007-7.262-6.111-10.835c-0.856-1.453-2.375-1.701-3.728-0.821
			c-1.253,0.815-1.4,2.032-0.448,3.532c0.898,1.416,1.821,2.818,2.661,4.269c4.184,7.223,7.396,14.771,7.804,23.268
			c0.067,1.416,1.305,2.358,2.74,2.239C88.675,214.36,89.48,213.379,89.442,211.684z M166.511,260.194
			c0.211-0.073,0.7-0.227,1.176-0.411c1.524-0.59,3.024-1.253,4.571-1.776c2.947-0.998,5.927-1.899,8.882-2.873
			c5.83-1.922,9.149-6.152,10.818-11.867c0.484-1.659-0.151-2.873-1.646-3.296c-1.529-0.433-2.643,0.201-3.152,1.896
			c-1.11,3.7-3.424,6.404-6.872,8.039c-2.118,1.005-4.367,1.737-6.575,2.544c-2.883,1.053-5.803,2.005-8.666,3.108
			c-1.264,0.488-1.64,1.428-1.357,2.598C163.965,259.298,165.053,260.179,166.511,260.194z"/>
		<path fill-rule="evenodd" clip-rule="evenodd" fill="#77C9B7" d="M338.616,331.082c1.384-8.464,2.744-16.695,4.07-24.932
			c1.314-8.163,2.586-16.332,3.896-24.496c0.511-3.183,1.101-6.354,1.595-9.539c0.104-0.664,0.383-0.953,0.985-1.142
			c4.214-1.316,8.52-1.723,12.902-1.3c7.516,0.726,15.017,1.81,22.589,1.495c5.298-0.22,10.59-0.671,15.874-1.133
			c6.692-0.584,13.388-1.046,20.103-0.698c2.738,0.142,5.452,0.711,8.189,0.893c3.505,0.232,7.022,0.287,10.535,0.387
			c4.673,0.133,9.347,0.235,14.226,0.355c-0.031,0.624,0.063,1.232-0.107,1.754c-2.603,7.948-4.296,16.108-5.572,24.354
			c-0.811,5.229-1.549,10.48-1.993,15.75c-0.52,6.17-2.536,11.857-4.878,17.486c-0.44,1.058-0.82,2.141-1.272,3.328
			C406.095,332.792,372.422,331.938,338.616,331.082z"/>
		<path fill-rule="evenodd" clip-rule="evenodd" fill="none" d="M335.986,315.896c-2.059,0-4.094,0-5.778,0
			c0.452-0.377,1.296-0.876,1.853-1.597c0.682-0.884,0.569-1.956,0.05-2.952c-4.135-7.919-8.279-15.834-12.391-23.766
			c-0.455-0.879-0.75-1.846-1.066-2.79c-0.262-0.779-0.271-1.525-0.126-2.399c0.178-1.074-0.081-2.335-0.499-3.375
			c-1.771-4.402-3.642-8.768-5.539-13.118c-1.069-2.454-0.423-4.056,2.058-5.123c1.09-0.469,2.025-1.283,3.092-1.821
			c2.198-1.11,4.438-2.139,6.659-3.203c0.647-0.311,1.267-0.707,1.944-0.924c1.113-0.357,2.249-0.743,3.401-0.853
			c1.158-0.11,2.081,0.587,2.604,1.617c2.728,5.379,6.152,10.272,10.131,14.795c0.244,0.276,0.354,0.809,0.3,1.19
			c-1.206,8.507-2.417,17.013-3.686,25.51c-0.868,5.809-1.825,11.604-2.746,17.404C336.179,314.923,336.088,315.35,335.986,315.896z
			"/>
		<path fill-rule="evenodd" clip-rule="evenodd" fill="#76C8B6" d="M314.821,289.004c0.334,0.677,0.653,1.312,0.961,1.951
			c2.146,4.451,4.295,8.9,6.427,13.357c0.308,0.645,0.574,1.316,0.782,2c0.878,2.896,0.355,4.288-2.565,5.13
			c-2.772,0.8-5.684,1.175-8.56,1.542c-1.806,0.23-3.104-0.598-4.007-2.354c-2.094-4.075-4.438-8.021-5.541-12.537
			c-0.229-0.94-0.044-1.335,0.823-1.847c3.607-2.125,7.136-4.387,10.691-6.601C314.138,289.456,314.435,289.255,314.821,289.004z"/>
		<path fill-rule="evenodd" clip-rule="evenodd" fill="#76C7B6" d="M423.935,136.489c-1.457,2.913-3.625,4.827-6.148,6.357
			c-5.456,3.309-11.499,4.365-17.766,4.461c-1.168,0.018-1.898-0.775-1.576-1.875c1.266-4.313,2.348-8.699,4.589-12.667
			c0.544-0.962,1.37-0.547,2.011-0.43c4.231,0.771,8.457,1.583,12.664,2.479C419.759,135.252,421.766,135.899,423.935,136.489z"/>
		<path fill-rule="evenodd" clip-rule="evenodd" fill="#76C7B5" d="M335.197,321.259c-1.295,3.287-2.498,6.341-3.742,9.5
			c-3.202-0.982-6.337-1.948-9.475-2.906c-5.01-1.529-10.024-3.044-15.028-4.595c-0.421-0.131-0.772-0.486-1.156-0.737
			c0.058-0.125,0.115-0.251,0.173-0.377C315.641,321.851,325.312,321.558,335.197,321.259z"/>
		<path fill-rule="evenodd" clip-rule="evenodd" fill="#76C7B5" d="M404.232,109.74c4.64-1.138,9.031-3.352,13.301-5.862
			c0.482-0.283,1.361-0.496,1.71-0.25c0.435,0.307,0.762,1.151,0.698,1.714c-0.247,2.185-0.723,4.337-2.145,6.118
			c-3.17,3.974-7.132,6.808-12.028,8.279c-0.187,0.057-0.387,0.07-0.38,0.069C405.008,116.492,404.629,113.196,404.232,109.74z"/>
		<path fill-rule="evenodd" clip-rule="evenodd" fill="#76C7B5" d="M137.878,313.096c-2.899-0.222-5.718-0.389-8.523-0.679
			c-0.969-0.101-1.39-1.035-1.308-2.033c0.286-3.5,0.522-7.003,0.77-10.505c0.028-0.393,0.004-0.788,0.004-1.342
			c2.654-0.095,5.236-0.262,7.813-0.209c0.461,0.01,1.243,0.891,1.303,1.433C138.417,304.13,138.347,308.51,137.878,313.096z"/>
		<path fill-rule="evenodd" clip-rule="evenodd" fill="#76C7B5" d="M360.697,264.257c-3.785,0.232-7.578,0.294-11.32,0.765
			c-1.891,0.238-2.913-0.247-3.797-1.837c-0.924-1.659-2.087-3.187-3.354-5.083c3.128-1.438,6.078-2.905,9.118-4.155
			c2.393-0.982,2.498-0.898,3.924,1.36c1.317,2.087,2.48,4.271,3.742,6.395C359.537,262.586,360.144,263.423,360.697,264.257z"/>
		<path fill-rule="evenodd" clip-rule="evenodd" fill="#011712" d="M299.286,110.043c1.705,2.884,3.805,5.365,6.242,7.564
			c6.157,5.556,13.499,8.877,21.331,11.265c0.802,0.245,1.625,0.433,2.406,0.729c1.216,0.462,1.747,1.651,1.387,2.941
			c-0.37,1.325-1.542,2.152-2.822,1.796c-11.191-3.105-21.466-7.828-29.255-16.84c-2.981-3.451-5.23-7.344-6.76-11.645
			c-0.737-2.071,0.312-3.585,2.519-3.644c7.09-0.189,14.002,1.077,20.888,2.552c2.962,0.634,5.922,1.273,9.177,1.973
			c-0.334-0.464-0.485-0.704-0.666-0.92c-1.357-1.626-2.688-3.278-4.09-4.866c-4.072-4.612-6.318-10.039-7.119-16.076
			c-0.609-4.592-1.188-9.194-1.547-13.81c-0.155-1.999,0.171-4.06,0.487-6.06c0.16-1.016,0.785-1.958,1.313-3.2
			c0.306,0.515,0.483,0.715,0.553,0.947c0.617,2.094,1.846,3.802,3.377,5.301c1.456,1.425,2.89,2.89,4.466,4.172
			c5.889,4.791,11.868,9.469,17.738,14.281c2.895,2.374,5.624,4.949,8.543,7.534c-3.681,5.058-7.313,10.016-10.895,15.011
			c-0.438,0.61-0.716,1.394-0.863,2.138c-0.282,1.422-1.159,2.665-2.729,2.773c-1.879,0.131-3.816-0.015-5.681-0.325
			c-6.811-1.135-13.585-2.499-20.409-3.536C304.438,109.731,301.895,110.043,299.286,110.043z M317.383,77.615
			c-0.817,8.986,7.146,24.15,13.948,26.956c2.025-2.572,4.044-5.135,6.076-7.713c-0.012-0.017-0.039-0.098-0.095-0.139
			c-0.193-0.141-0.395-0.271-0.597-0.4c-6.602-4.216-12.266-9.423-16.823-15.82C319.203,79.531,318.33,78.694,317.383,77.615z"/>
		<path fill-rule="evenodd" clip-rule="evenodd" fill="#011712" d="M228.804,147.116c0.052,6.842-1.708,13.199-4.485,19.37
			c-1.896,4.215-3.635,8.509-5.245,12.842c-0.657,1.77-0.723,3.75-1.188,5.603c-0.191,0.762-0.578,1.6-1.141,2.111
			c-0.779,0.708-1.846,0.702-2.813,0.199c-0.957-0.498-1.131-1.374-1.034-2.354c0.351-3.568,1.331-6.979,2.702-10.271
			c1.565-3.757,3.251-7.463,4.825-11.217c2.733-6.519,3.406-13.36,2.903-20.333c-0.313-4.34-0.849-8.665-1.283-12.997
			c-0.023-0.238-0.044-0.478-0.058-0.717c-0.096-1.633,0.451-2.463,1.742-2.65c1.561-0.226,2.873,0.572,3.149,2.072
			c0.26,1.411,0.375,2.849,0.52,4.279C227.875,137.74,228.336,142.428,228.804,147.116z"/>
		<path fill-rule="evenodd" clip-rule="evenodd" fill="#011712" d="M346.495,123.826c1.867,0.09,4.271,0.941,6.562,2.087
			c1.532,0.766,2.126,2.346,1.756,4.077c-0.305,1.425-1.092,2.011-2.96,2.284c-3.021,0.443-5.774-0.509-8.434-1.721
			c-1.623-0.74-2.408-2.697-1.968-4.225C341.905,124.752,343.559,123.788,346.495,123.826z"/>
		<path fill-rule="evenodd" clip-rule="evenodd" fill="#011712" d="M382.05,132.452c1.471,0.434,3.771,0.963,5.952,1.803
			c1.657,0.639,2.263,3.501,1.281,5.006c-1.003,1.537-2.862,2.347-4.672,1.935c-1.553-0.354-3.082-0.812-4.621-1.226
			c-0.115-0.031-0.232-0.06-0.344-0.104c-2.062-0.814-3.187-2.459-2.858-4.179C377.103,134.041,379.32,132.411,382.05,132.452z"/>
		<path fill-rule="evenodd" clip-rule="evenodd" fill="#021813" d="M357.466,191.788c-2.431-0.402-4.878-0.725-7.285-1.234
			c-1.708-0.36-2.397-1.661-1.958-3.223c0.411-1.461,1.498-1.881,3.195-1.624c2.591,0.393,5.208,0.624,7.821,0.84
			c1.829,0.151,2.894,1.245,2.664,2.921c-0.168,1.226-1.003,2.019-2.243,2.077c-0.716,0.033-1.436,0.006-2.154,0.006
			C357.492,191.63,357.479,191.709,357.466,191.788z"/>
		<path fill-rule="evenodd" clip-rule="evenodd" fill="#031A15" d="M343.83,118.965c4.057,0.983,8.116,1.954,12.165,2.969
			c0.431,0.108,1.001,0.4,1.141,0.752c0.181,0.455,0.091,1.092-0.088,1.575c-0.062,0.166-0.77,0.218-1.134,0.127
			c-3.206-0.802-6.396-1.673-9.604-2.468c-0.999-0.247-2.048-0.287-3.06-0.494c-0.629-0.128-1.576,0.027-1.518-1.043
			c0.057-1.021,0.729-1.332,1.676-1.173c0.118,0.02,0.238,0.02,0.357,0.029C343.787,119.148,343.809,119.057,343.83,118.965z"/>
		<path fill-rule="evenodd" clip-rule="evenodd" fill="#031A15" d="M379.266,127.623c4.075,0.663,8.15,1.391,11.988,3.015
			c0.369,0.156,0.479,0.925,0.709,1.411c-0.431,0.172-0.905,0.561-1.283,0.483c-4.094-0.845-8.17-1.767-12.254-2.656
			c-0.669-0.146-0.951-0.497-0.84-1.186C377.746,127.694,378.387,127.505,379.266,127.623z"/>
		<path fill-rule="evenodd" clip-rule="evenodd" fill="#011712" d="M179.836,80.148c0.008,1.314-0.587,1.933-2.108,2.527
			c-5.647,2.205-11.435,4.125-16.886,6.743c-21.273,10.215-39.062,24.754-53.19,43.707c-0.31,0.416-0.61,0.853-0.99,1.197
			c-0.973,0.883-2.607,0.801-3.611-0.133c-0.938-0.873-0.979-1.864-0.079-3.101c4.973-6.84,10.521-13.183,16.643-19.015
			c16.354-15.583,35.078-27.252,56.654-34.186C178.381,77.208,179.825,78.135,179.836,80.148z"/>
		<path fill-rule="evenodd" clip-rule="evenodd" fill="#011712" d="M116.325,216.168c0.251-0.384,0.602-1.091,1.105-1.664
			c2.902-3.304,5.94-6.493,8.743-9.879c4.335-5.234,7.587-11.054,8.898-17.828c0.275-1.42,1.265-2.01,2.641-1.749
			c1.422,0.271,2.454,1.566,2.15,2.979c-0.41,1.908-0.882,3.819-1.527,5.659c-2.149,6.133-5.834,11.35-10.025,16.223
			c-2.476,2.88-5.097,5.634-7.65,8.447c-0.754,0.831-1.667,1.119-2.702,0.661C116.923,218.558,116.379,217.712,116.325,216.168z"/>
		<path fill-rule="evenodd" clip-rule="evenodd" fill="#011813" d="M89.442,211.684c0.038,1.695-0.768,2.677-2.227,2.798
			c-1.436,0.119-2.673-0.823-2.74-2.239c-0.408-8.496-3.62-16.045-7.804-23.268c-0.84-1.45-1.763-2.853-2.661-4.269
			c-0.953-1.5-0.806-2.717,0.448-3.532c1.353-0.88,2.872-0.632,3.728,0.821c2.104,3.573,4.279,7.121,6.111,10.835
			c2.828,5.729,4.675,11.789,5.099,18.219C89.413,211.288,89.431,211.527,89.442,211.684z"/>
		<path fill-rule="evenodd" clip-rule="evenodd" fill="#011813" d="M166.511,260.194c-1.458-0.016-2.546-0.896-2.821-2.038
			c-0.282-1.17,0.093-2.109,1.357-2.598c2.863-1.104,5.783-2.056,8.666-3.108c2.208-0.807,4.458-1.539,6.575-2.544
			c3.448-1.635,5.762-4.339,6.872-8.039c0.509-1.695,1.623-2.329,3.152-1.896c1.496,0.423,2.131,1.637,1.646,3.296
			c-1.669,5.715-4.989,9.945-10.818,11.867c-2.955,0.974-5.935,1.875-8.882,2.873c-1.547,0.523-3.046,1.187-4.571,1.776
			C167.211,259.968,166.722,260.121,166.511,260.194z"/>
		<path fill-rule="evenodd" clip-rule="evenodd" fill="#75C7B5" d="M317.383,77.615c0.947,1.079,1.82,1.916,2.51,2.884
			c4.558,6.396,10.222,11.604,16.823,15.82c0.202,0.129,0.403,0.259,0.597,0.4c0.056,0.041,0.083,0.122,0.095,0.139
			c-2.032,2.579-4.051,5.142-6.076,7.713C324.529,101.766,316.565,86.602,317.383,77.615z"/>
	</g>
</g>
</svg>
